<?xml version="1.0" standalone="no"?><svg xmlns="http://www.w3.org/2000/svg" viewBox="0 0 1440 320"><path fill="#023E8A" fill-opacity="1" d="M0,32L34.3,42.7C68.6,53,137,75,206,112C274.3,149,343,203,411,224C480,245,549,235,617,192C685.7,149,754,75,823,80C891.4,85,960,171,1029,186.7C1097.1,203,1166,149,1234,138.7C1302.9,128,1371,160,1406,176L1440,192L1440,0L1405.7,0C1371.4,0,1303,0,1234,0C1165.7,0,1097,0,1029,0C960,0,891,0,823,0C754.3,0,686,0,617,0C548.6,0,480,0,411,0C342.9,0,274,0,206,0C137.1,0,69,0,34,0L0,0Z"></path></svg>